<?xml version="1.0" encoding="UTF-8" standalone="no"?>
<!-- Generator: Adobe Illustrator 19.0.0, SVG Export Plug-In . SVG Version: 6.00 Build 0)  -->

<svg
   xmlns:dc="http://purl.org/dc/elements/1.1/"
   xmlns:cc="http://creativecommons.org/ns#"
   xmlns:rdf="http://www.w3.org/1999/02/22-rdf-syntax-ns#"
   xmlns:svg="http://www.w3.org/2000/svg"
   xmlns="http://www.w3.org/2000/svg"
   xmlns:xlink="http://www.w3.org/1999/xlink"
   xmlns:sodipodi="http://sodipodi.sourceforge.net/DTD/sodipodi-0.dtd"
   xmlns:inkscape="http://www.inkscape.org/namespaces/inkscape"
   version="1.1"
   id="Capa_1"
   x="0px"
   y="0px"
   viewBox="0 0 498.168 498.168"
   style="enable-background:new 0 0 498.168 498.168;"
   xml:space="preserve"
   sodipodi:docname="irydium.svg"
   inkscape:version="0.92.5 (2060ec1f9f, 2020-04-08)"><metadata
   id="metadata101"><rdf:RDF><cc:Work
       rdf:about=""><dc:format>image/svg+xml</dc:format><dc:type
         rdf:resource="http://purl.org/dc/dcmitype/StillImage" /></cc:Work></rdf:RDF></metadata><defs
   id="defs99"><linearGradient
   inkscape:collect="always"
   id="linearGradient4704"><stop
     style="stop-color:#c6c6e9;stop-opacity:1"
     offset="0"
     id="stop4700" /><stop
     style="stop-color:#48445d;stop-opacity:1"
     offset="1"
     id="stop4702" /></linearGradient><linearGradient
   inkscape:collect="always"
   id="linearGradient4696"><stop
     style="stop-color:#bda991;stop-opacity:1"
     offset="0"
     id="stop4692" /><stop
     style="stop-color:#524a3e;stop-opacity:1"
     offset="1"
     id="stop4694" /></linearGradient><linearGradient
   inkscape:collect="always"
   xlink:href="#linearGradient4696"
   id="linearGradient4698"
   x1="294.14401"
   y1="350.70801"
   x2="473.62213"
   y2="477.01688"
   gradientUnits="userSpaceOnUse" /><linearGradient
   inkscape:collect="always"
   xlink:href="#linearGradient4704"
   id="linearGradient4706"
   x1="99.767975"
   y1="336.98495"
   x2="284.33713"
   y2="452.27777"
   gradientUnits="userSpaceOnUse" />
	
	
	
</defs><sodipodi:namedview
   pagecolor="#ffffff"
   bordercolor="#666666"
   borderopacity="1"
   objecttolerance="10"
   gridtolerance="10"
   guidetolerance="10"
   inkscape:pageopacity="0"
   inkscape:pageshadow="2"
   inkscape:window-width="1366"
   inkscape:window-height="697"
   id="namedview97"
   showgrid="false"
   inkscape:zoom="0.93674544"
   inkscape:cx="378.54704"
   inkscape:cy="245.91768"
   inkscape:window-x="0"
   inkscape:window-y="0"
   inkscape:window-maximized="1"
   inkscape:current-layer="Capa_1" />

<path
   style="fill:#FFFFFF;"
   d="M325.174,439.92L211.138,296.405V138.151h-83.006v158.255L14.095,439.92  c-15.515,20.17-1.552,49.648,24.048,49.648h262.982C326.725,489.569,340.689,460.09,325.174,439.92z"
   id="path4" />
<path
   style="fill:#193651;"
   d="M301.126,497.326H38.144c-14.739,0-27.927-8.533-34.133-21.721  c-6.206-13.188-5.43-28.703,3.879-40.339l112.485-141.188V138.151c0-4.655,3.103-7.758,7.758-7.758h83.006  c4.655,0,7.758,3.103,7.758,7.758v155.927L331.38,435.266c9.309,11.636,10.861,27.152,4.655,40.339  C329.053,488.793,315.865,497.326,301.126,497.326z M135.889,145.908v150.497c0,1.552-0.776,3.103-1.552,4.655L20.301,445.351  c-5.43,6.982-6.206,16.291-2.327,24.048s11.636,13.188,20.17,13.188h262.982c8.533,0,16.291-4.655,20.17-13.188  c3.879-7.758,3.103-17.067-2.327-24.048L204.932,301.06c-0.776-1.552-1.552-3.103-1.552-4.655V145.908H135.889z"
   id="path6" />
<polygon
   style="fill:url(#linearGradient4706);fill-opacity:1"
   points="132.01,341.399 38.919,458.539 300.35,458.539 207.259,341.399 "
   id="polygon8" />
<rect
   x="118.822"
   y="104.017"
   style="fill:#FFFFFF;"
   width="101.624"
   height="34.133"
   id="rect10" />
<path
   style="fill:#193651;"
   d="M220.447,145.908H118.822c-4.655,0-7.758-3.103-7.758-7.758v-34.133c0-4.655,3.103-7.758,7.758-7.758  h101.624c4.655,0,7.758,3.103,7.758,7.758v34.133C228.204,142.029,225.101,145.908,220.447,145.908z M126.58,130.393h86.109v-18.618  H126.58V130.393z"
   id="path12" />
<circle
   id="circle14"
   r="10.861"
   cy="238.22301"
   cx="176.229"
   style="fill:#b0b0de;fill-opacity:1" /><circle
   id="circle16"
   r="10.861"
   cy="187.02299"
   cx="162.265"
   style="fill:#b0b0de;fill-opacity:1" /><circle
   id="circle18"
   r="13.188"
   cy="304.16299"
   cx="166.91901"
   style="fill:#b0b0de;fill-opacity:1" />
<circle
   style="fill:#FFFFFF;"
   cx="441.538"
   cy="178.49"
   r="17.842"
   id="circle22" />
<path
   style="fill:#193651;"
   d="M441.538,204.09c-13.964,0-25.6-11.636-25.6-25.6c0-13.964,11.636-25.6,25.6-25.6  s25.6,11.636,25.6,25.6C467.138,192.454,455.501,204.09,441.538,204.09z M441.538,167.629c-5.43,0-10.085,4.655-10.085,10.085  s4.655,10.085,10.085,10.085s10.085-4.655,10.085-10.085C451.622,172.284,446.968,167.629,441.538,167.629z"
   id="path24" />
<circle
   style="fill:#FFFFFF;"
   cx="338.362"
   cy="147.46"
   r="26.376"
   id="circle26" />
<path
   style="fill:#193651;"
   d="M338.362,181.593c-18.618,0-34.133-15.515-34.133-34.133s15.515-34.133,34.133-34.133  s34.133,15.515,34.133,34.133S356.98,181.593,338.362,181.593z M338.362,128.842c-10.085,0-18.618,8.533-18.618,18.618  c0,10.085,8.533,18.618,18.618,18.618c10.085,0,18.618-8.533,18.618-18.618C356.98,137.375,348.447,128.842,338.362,128.842z"
   id="path28" />
<circle
   style="fill:#FFFFFF;"
   cx="380.253"
   cy="39.629"
   r="31.03"
   id="circle30" />
<path
   style="fill:#193651;"
   d="M380.253,78.417c-21.721,0-38.788-17.067-38.788-38.788s17.067-38.788,38.788-38.788  c21.721,0,38.788,17.067,38.788,38.788S401.198,78.417,380.253,78.417z M380.253,16.357c-13.188,0-23.273,10.861-23.273,23.273  s10.861,23.273,23.273,23.273c13.188,0,23.273-10.861,23.273-23.273S392.665,16.357,380.253,16.357z"
   id="path32" />
<circle
   style="fill:#FFFFFF;"
   cx="111.065"
   cy="26.442"
   r="17.842"
   id="circle34" />
<path
   style="fill:#193651;"
   d="M111.065,52.042c-13.964,0-25.6-11.636-25.6-25.6s11.636-25.6,25.6-25.6s25.6,11.636,25.6,25.6  S125.029,52.042,111.065,52.042z M111.065,16.357c-5.43,0-10.085,4.655-10.085,10.085s4.655,10.085,10.085,10.085  c5.43,0,10.085-4.655,10.085-10.085S116.495,16.357,111.065,16.357z"
   id="path36" />
<circle
   style="fill:#FFFFFF;"
   cx="180.107"
   cy="52.817"
   r="17.842"
   id="circle38" />
<path
   style="fill:#193651;"
   d="M180.107,78.417c-13.964,0-25.6-11.636-25.6-25.6s11.636-25.6,25.6-25.6  c13.964,0,25.6,11.636,25.6,25.6S194.847,78.417,180.107,78.417z M180.107,42.733c-5.43,0-10.085,4.655-10.085,10.085  s4.655,10.085,10.085,10.085c5.43,0,10.085-4.655,10.085-10.085S186.313,42.733,180.107,42.733z"
   id="path40" />


<g
   id="g4713"><path
     id="path42"
     d="M471.792,336.745c-7.758-6.206-18.618-6.206-26.376,0c-13.188,10.085-31.03,10.085-44.218,0  c-7.758-6.206-18.618-6.206-26.376,0c-13.188,10.085-31.03,10.085-44.218,0c-7.758-6.206-18.618-6.206-26.376,0  c-4.655,3.879-10.861,6.206-17.842,7.758l0,0v109.382c0,19.394,15.515,35.685,35.685,35.685H453.95  c19.394,0,35.685-15.515,35.685-35.685V344.502l0,0C482.653,343.726,476.447,340.623,471.792,336.745z"
     style="fill:url(#linearGradient4698);fill-opacity:1" /><path
     id="path44"
     d="M330.604,336.745c13.188,10.085,31.03,10.085,44.218,0c7.758-6.206,18.618-6.206,26.376,0  c13.188,10.085,31.03,10.085,44.218,0c7.758-6.206,18.618-6.206,26.376,0c4.655,3.879,10.861,6.206,17.842,7.758v-95.418H258.459  l27.927,31.03v64.388c6.982-0.776,12.412-3.103,17.842-7.758C311.986,330.539,322.847,330.539,330.604,336.745z"
     style="fill:#FFFFFF;" /><g
     id="g50">
	<path
   id="path46"
   d="M395.768,342.951c-4.655-3.879-11.636-3.879-17.067,0c-15.515,12.412-38.788,12.412-53.527,0   c-4.655-3.879-11.636-3.879-17.067,0c-6.206,4.655-13.964,7.758-21.721,9.309c-4.655,0.776-8.533-3.103-8.533-7.758v-61.285   l-25.6-28.703c-2.327-2.327-2.327-5.43-1.552-8.533c1.552-3.103,3.879-4.655,6.982-4.655h231.176c4.655,0,7.758,3.103,7.758,7.758   v95.418c0,4.655-3.879,8.533-8.533,7.758c-7.758-0.776-15.515-3.879-21.721-9.309c-4.655-3.879-11.636-3.879-17.067,0   C434.556,355.363,412.059,355.363,395.768,342.951z M405.853,330.539c10.085,7.758,24.824,7.758,34.133,0   c10.861-8.533,25.6-8.533,36.461,0c1.552,1.552,3.103,2.327,5.43,3.103v-76.8H276.301l16.291,17.842   c1.552,1.552,2.327,3.103,2.327,5.43v54.303c1.552-0.776,3.879-2.327,5.43-3.103c10.861-8.533,25.6-8.533,36.461,0   c10.085,7.758,24.824,7.758,34.133,0C380.253,322.005,394.992,322.005,405.853,330.539z"
   style="fill:#193651;" />
	<path
   id="path48"
   d="M453.95,497.326H322.071c-24.048,0-43.442-19.394-43.442-43.442V344.502   c0-3.879,3.103-7.758,6.982-7.758c5.43-0.776,10.085-2.327,13.964-5.43c10.861-8.533,25.6-8.533,36.461,0   c10.085,7.758,24.824,7.758,34.133,0c10.861-8.533,25.6-8.533,36.461,0c10.085,7.758,24.824,7.758,34.133,0   c10.861-8.533,25.6-8.533,36.461,0c3.879,3.103,8.533,5.43,13.964,5.43c3.879,0.776,6.982,3.879,6.982,7.758V454.66   C496.616,477.933,477.223,497.326,453.95,497.326z M294.144,350.708V454.66c0,15.515,12.412,27.927,27.927,27.927H453.95   c15.515,0,27.927-12.412,27.927-27.927V350.708c-5.43-1.552-10.861-3.879-14.739-7.758c-4.655-3.879-11.636-3.879-17.067,0   c-15.515,12.412-38.788,12.412-53.527,0c-4.655-3.879-11.636-3.879-17.067,0c-15.515,12.412-38.788,12.412-53.527,0   c-4.655-3.879-11.636-3.879-17.067,0C304.229,346.054,299.574,349.157,294.144,350.708z"
   style="fill:#193651;" />
</g></g>



<g
   id="g66">
</g>
<g
   id="g68">
</g>
<g
   id="g70">
</g>
<g
   id="g72">
</g>
<g
   id="g74">
</g>
<g
   id="g76">
</g>
<g
   id="g78">
</g>
<g
   id="g80">
</g>
<g
   id="g82">
</g>
<g
   id="g84">
</g>
<g
   id="g86">
</g>
<g
   id="g88">
</g>
<g
   id="g90">
</g>
<g
   id="g92">
</g>
<g
   id="g94">
</g>
</svg>